# xmcd CD database file
#
# Track frame offsets:
#	150
#	19244
#	38338
#	56178
#	78322
#	97209
#	116096
#	133529
#	155965
#	176694
#	193313
#	209292
#	226159
#	241620
#	257081
#	277144
#	292203
#	307262
#	322996
#	340728
#
# Disc length: 4783 seconds
#
# Revision: 3
# Processed by: cddbd v1.5.2PL0 Copyright (c) Steve Scherf et al.
# Submitted via: CDex 1.51
#
DISCID=3112ad14
DTITLE=Various Artist - ZM-PP-14-Disc-2
DYEAR=1900
DGENRE=Blues
TTITLE0=Robbie Williams - Losers (duet version)
TTITLE1=Robbie Williams - Losers (for solo male)
TTITLE2=Maroon 5 - One More Night
TTITLE3=Emeli Sande - Read All About It (part 111)
TTITLE4=Rita Ora Ft Tinie Tempah - R.I.P.(duet)
TTITLE5=Rita Ora Ft Tinie Tempah - R.I.P.(for solo female)
TTITLE6=Example - Say Nothing
TTITLE7=Adele - Skyfall
TTITLE8=Scouting For Girls - Snakes And Ladders
TTITLE9=Girls Aloud - Something New
TTITLE10=Lawson - Standing In The Dark
TTITLE11=Calvin Harris Ft Florence Welch - Sweet Nothing
TTITLE12=Noisettes The - That Girl (duet version)
TTITLE13=Noisettes The - That Girl (for solo female)
TTITLE14=Gabrielle Aplin - The Power Of Love
TTITLE15=Olly Murs Ft Flo Rida - Troublemaker (duet version)
TTITLE16=Olly Murs Ft Flo Rida - Troublemaker (with rapper)
TTITLE17=Taylor Swift - We Are Never Ever Getting Back Together
TTITLE18=Little Mix - Wings
TTITLE19=Amelia Lily - You Bring Me Joy
EXTD=
EXTT0=
EXTT1=
EXTT2=
EXTT3=
EXTT4=
EXTT5=
EXTT6=
EXTT7=
EXTT8=
EXTT9=
EXTT10=
EXTT11=
EXTT12=
EXTT13=
EXTT14=
EXTT15=
EXTT16=
EXTT17=
EXTT18=
EXTT19=
PLAYORDER=
